<svg width="59" height="59" viewBox="0 0 59 59" fill="none" xmlns="http://www.w3.org/2000/svg">
<path d="M10.16 48.36C8.29333 48.36 6.73333 47.96 5.48 47.16C4.25333 46.36 3.32 45.2533 2.68 43.84C2.04 42.4267 1.66667 40.7867 1.56 38.92L5.56 37.84C5.64 38.9867 5.81333 40.0933 6.08 41.16C6.37333 42.2267 6.84 43.1067 7.48 43.8C8.12 44.4667 9.01333 44.8 10.16 44.8C11.3333 44.8 12.2133 44.48 12.8 43.84C13.4133 43.1733 13.72 42.2267 13.72 41C13.72 39.5333 13.3867 38.36 12.72 37.48C12.0533 36.5733 11.2133 35.6667 10.2 34.76L4.76 29.96C3.69333 29.0267 2.90667 28.0133 2.4 26.92C1.89333 25.8 1.64 24.4267 1.64 22.8C1.64 20.4267 2.32 18.5867 3.68 17.28C5.04 15.9733 6.89333 15.32 9.24 15.32C10.52 15.32 11.64 15.4933 12.6 15.84C13.5867 16.16 14.4 16.6667 15.04 17.36C15.7067 18.0533 16.2267 18.9333 16.6 20C17 21.04 17.2667 22.2667 17.4 23.68L13.56 24.72C13.48 23.6533 13.32 22.68 13.08 21.8C12.84 20.8933 12.4133 20.1733 11.8 19.64C11.2133 19.08 10.36 18.8 9.24 18.8C8.12 18.8 7.24 19.1067 6.6 19.72C5.98667 20.3067 5.68 21.1867 5.68 22.36C5.68 23.3467 5.84 24.16 6.16 24.8C6.50667 25.44 7.05333 26.0933 7.8 26.76L13.28 31.56C14.5067 32.6267 15.5867 33.9067 16.52 35.4C17.4533 36.8667 17.92 38.6133 17.92 40.64C17.92 42.24 17.5867 43.6267 16.92 44.8C16.2533 45.9467 15.3333 46.8267 14.16 47.44C13.0133 48.0533 11.68 48.36 10.16 48.36Z" fill="#10B981"/>
<path d="M26.44 48.32C25.6133 48.32 24.8667 48.12 24.2 47.72C23.56 47.2933 23 46.8267 22.52 46.32V48H18.24V15.6H22.52V26.72C23.0267 26.1333 23.6267 25.6267 24.32 25.2C25.04 24.7733 25.8933 24.56 26.88 24.56C28.08 24.56 29.0267 24.88 29.72 25.52C30.44 26.1333 30.9733 26.92 31.32 27.88C31.6667 28.8133 31.8933 29.7733 32 30.76C32.1067 31.72 32.16 32.5467 32.16 33.24V38.84C32.16 40.4667 32 42.0133 31.68 43.48C31.36 44.92 30.7867 46.0933 29.96 47C29.1333 47.88 27.96 48.32 26.44 48.32ZM25.56 44.96C26.3067 44.96 26.84 44.6933 27.16 44.16C27.48 43.6 27.68 42.8533 27.76 41.92C27.84 40.9867 27.88 39.96 27.88 38.84V33.24C27.88 32.28 27.8267 31.4 27.72 30.6C27.6133 29.7733 27.3867 29.12 27.04 28.64C26.6933 28.16 26.1467 27.92 25.4 27.92C24.84 27.92 24.3067 28.04 23.8 28.28C23.32 28.52 22.8933 28.7867 22.52 29.08V43.92C22.8933 44.2133 23.3333 44.4667 23.84 44.68C24.3733 44.8667 24.9467 44.96 25.56 44.96Z" fill="black"/>
<path d="M33.24 47.96V15.56H37.52V34.88L43.76 24.88H48.24L42.8 33.92L48.08 48H43.8L39.48 36.16L37.52 39.12V47.96H33.24Z" fill="#10B981"/>
<path d="M50.96 48V43.24H55.24V48H50.96Z" fill="black"/>
</svg>
